<?xml version="1.0" encoding="UTF-8" standalone="no" ?>
<!DOCTYPE svg PUBLIC "-//W3C//DTD SVG 1.1//EN" "http://www.w3.org/Graphics/SVG/1.1/DTD/svg11.dtd">
<svg xmlns="http://www.w3.org/2000/svg" xmlns:xlink="http://www.w3.org/1999/xlink" version="1.1" width="500" height="500" viewBox="0 0 500 500" xml:space="preserve">
<desc>Created with Fabric.js 5.3.0</desc>
<defs>
</defs>
<g transform="matrix(1 0 0 1 250 250)" id="oGxmfew5roQbys5pCJTFj"  >
<path style="stroke: none; stroke-width: 1; stroke-dasharray: none; stroke-linecap: butt; stroke-dashoffset: 0; stroke-linejoin: miter; stroke-miterlimit: 4; fill: rgb(255,255,255); fill-rule: nonzero; opacity: 1;"  transform=" translate(-168.9, -275.45)" d="M -14 471.7 L -14 491.59999999999997 L 14.100000000000001 491.59999999999997 L 14.100000000000001 471.7 L 24.400000000000002 471.7 L 24.400000000000002 523.8 L 14.1 523.8 L 14.1 501.9 L -14 501.9 L -14 523.8 L -24.4 523.8 L -24.4 471.69999999999993 L -14 471.69999999999993 z M 43.1 497.8 C 43.1 483.3 54.7 470.1 75 470.1 C 95.7 470.1 106.9 482.90000000000003 106.9 497.8 C 106.9 512.3 95.30000000000001 525.5 75 525.5 C 54.7 525.5 43.1 512.2 43.1 497.8 z M 96.5 497.8 C 96.5 488.7 87.8 480.40000000000003 75 480.40000000000003 C 62.2 480.40000000000003 53.5 488.70000000000005 53.5 497.8 C 53.5 506.90000000000003 62.2 515.2 75 515.2 C 87.8 515.1 96.5 506.9 96.5 497.8 z M 166.4 471.7 L 166.4 482 L 147.4 482 L 147.4 523.4 L 137 523.4 L 137 482 L 118 482 L 118 471.6 C 118 471.7 166.4 471.7 166.4 471.7 z M 232.7 471.7 L 232.7 482 L 196.7 482 L 196.7 491.5 L 215.7 491.5 L 215.7 501.8 L 196.7 501.8 L 196.7 513 L 233.5 513 L 233.5 523.4 L 186.3 523.4 L 186.3 471.2 L 232.70000000000002 471.2 L 232.7 471.7 L 232.7 471.7 z M 267 471.7 L 267 513.5 L 296.8 513.5 L 296.8 523.8 L 256.6 523.8 L 256.6 471.69999999999993 L 267 471.69999999999993 L 267 471.7 z M 314.6 507.3 C 323.70000000000005 513.1 332.40000000000003 515.2 341.5 515.2 C 346.9 515.2 355.6 514 355.6 508.20000000000005 C 355.6 504.1 351.1 502.80000000000007 347.70000000000005 502.80000000000007 L 332.00000000000006 502.4000000000001 C 319.20000000000005 502.0000000000001 313.00000000000006 494.5000000000001 313.00000000000006 486.7000000000001 C 313.00000000000006 478.8000000000001 318.80000000000007 470.5000000000001 337.40000000000003 470.5000000000001 C 351.1 470.5000000000001 359.3 475.9000000000001 362.6 477.5000000000001 L 358.1 486.60000000000014 C 354 484.5000000000001 346.5 480.8000000000001 336.20000000000005 480.8000000000001 C 330.80000000000007 480.8000000000001 323.80000000000007 482.10000000000014 323.80000000000007 486.60000000000014 C 323.80000000000007 490.70000000000016 329.6000000000001 491.60000000000014 332.9000000000001 491.60000000000014 L 346.6000000000001 492.0000000000001 C 358.6000000000001 492.4000000000001 366.00000000000006 497.4000000000001 366.00000000000006 508.5000000000001 C 366.00000000000006 518.0000000000001 358.6000000000001 525.5000000000001 341.6000000000001 525.5000000000001 C 327.50000000000006 525.5000000000001 317.2000000000001 521.8000000000001 309.7000000000001 516.4000000000001 L 314.6 507.3 L 314.6 507.3 z M -3.3 323.5 C -8.3 322.7 -15.3 322.7 -19.5 322.7 C -34.4 322.7 -47.2 327.2 -55.9 335.9 C -62.5 342.09999999999997 -66.2 350.79999999999995 -66.2 360.29999999999995 C -66.2 370.19999999999993 -62.5 378.99999999999994 -55.900000000000006 385.99999999999994 C -47.2 394.29999999999995 -34.800000000000004 399.19999999999993 -20.300000000000004 399.19999999999993 C -11.200000000000005 399.19999999999993 -5.400000000000004 398.3999999999999 7.799999999999997 394.69999999999993 C 8.199999999999998 394.69999999999993 8.199999999999998 394.29999999999995 8.199999999999998 394.29999999999995 L 9.899999999999997 378.19999999999993 C 9.899999999999997 377.79999999999995 9.899999999999997 377.79999999999995 9.499999999999996 377.79999999999995 L 9.1 377.79999999999995 C 3.6999999999999993 384.4 -5.800000000000001 388.19999999999993 -16.6 388.19999999999993 C -26.1 388.19999999999993 -34 385.29999999999995 -39.400000000000006 379.8999999999999 C -44.400000000000006 374.99999999999994 -46.900000000000006 368.2999999999999 -46.900000000000006 360.3999999999999 C -46.900000000000006 352.0999999999999 -44.00000000000001 345.0999999999999 -38.60000000000001 340.0999999999999 C -33.20000000000001 334.69999999999993 -25.40000000000001 331.7999999999999 -16.300000000000008 331.7999999999999 C -6.000000000000007 331.7999999999999 1.499999999999993 334.6999999999999 6.499999999999993 340.8999999999999 C 6.499999999999993 340.8999999999999 6.899999999999993 341.2999999999999 6.899999999999993 340.8999999999999 C 7.299999999999994 340.8999999999999 7.299999999999994 340.49999999999994 7.299999999999994 340.49999999999994 L 7.299999999999994 321.8999999999999 C 7.299999999999994 321.8999999999999 7.299999999999994 321.49999999999994 6.899999999999993 321.49999999999994 L 6.7 321.49999999999994 C 5.5 323.19999999999993 4.2 323.59999999999997 2.2 323.59999999999997 L -3.3 323.5 M 79.5 385.2 C 82.4 389.8 85.7 393.09999999999997 90.7 397.59999999999997 L 114.30000000000001 397.59999999999997 C 114.70000000000002 397.59999999999997 114.70000000000002 397.59999999999997 114.70000000000002 397.2 C 114.70000000000002 396.8 114.70000000000002 396.8 114.30000000000001 396.8 C 107.70000000000002 394.3 105.20000000000002 392.7 100.20000000000002 386 L 91.50000000000001 375.6 C 91.10000000000001 374.8 90.30000000000001 374.3 89.40000000000002 373.1 C 87.30000000000003 370.6 84.80000000000003 367.3 81.50000000000001 364.8 C 98.50000000000001 361.5 100.50000000000001 350.7 100.50000000000001 342.90000000000003 C 100.50000000000001 337.90000000000003 98.80000000000001 333.8 95.50000000000001 330.50000000000006 C 91.00000000000001 326.00000000000006 83.10000000000001 323.50000000000006 72.30000000000001 323.50000000000006 L 34 323.50000000000006 C 34 323.50000000000006 33.6 323.50000000000006 33.6 323.90000000000003 C 33.6 324.3 33.6 324.3 34 324.3 C 41 326.40000000000003 41.9 327.6 41.9 334.6 L 41.9 386.40000000000003 C 41.9 393.00000000000006 41.1 394.3 34.4 396.3 L 34 396.7 C 34 397.09999999999997 34.4 397.09999999999997 34.4 397.09999999999997 L 65 397.09999999999997 C 65.4 397.09999999999997 65.4 397.09999999999997 65.4 396.7 C 65.4 396.3 65.4 396.3 65 396.3 C 58 394.2 57.1 393 57.1 386.40000000000003 L 57.1 366.1 L 62.1 366.1 C 65 367.40000000000003 71.2 373.6 74.5 377.3 L 79.5 385.2 M 57.1 334.7 L 68.3 334.7 C 74.5 334.7 79.89999999999999 336.4 82.8 339.3 C 84.5 340.90000000000003 85.3 343 85.3 345.5 C 85.3 348 84.5 350.1 83.2 351.3 C 80.7 353.8 75.7 355 68.3 355 L 57.1 355 L 57.1 334.7 z M 165.6 321.9 C 153.6 321.9 143.29999999999998 325.59999999999997 135.79999999999998 332.7 C 128.29999999999998 339.7 124.19999999999999 349.3 124.19999999999999 360.4 C 124.19999999999999 370.79999999999995 128.29999999999998 380.7 135.39999999999998 388.2 C 143.29999999999998 396 153.59999999999997 400.2 165.59999999999997 400.2 C 177.19999999999996 400.2 187.89999999999998 396.09999999999997 195.79999999999995 388.2 C 203.29999999999995 381.09999999999997 206.99999999999994 371.2 206.99999999999994 360.4 C 206.99999999999994 349.59999999999997 203.29999999999995 340.59999999999997 196.59999999999994 333.5 C 188.8 326 178 321.9 165.6 321.9 M 190 360.8 C 190 368.7 187.5 375.7 183 380.7 C 178.4 385.7 172.2 388.59999999999997 165.2 388.59999999999997 C 159 388.59999999999997 153.6 386.09999999999997 149.1 381.99999999999994 C 143.7 376.59999999999997 140.79999999999998 369.19999999999993 140.79999999999998 360.8999999999999 C 140.79999999999998 352.99999999999994 143.29999999999998 345.99999999999994 148.7 340.99999999999994 C 153.2 336.49999999999994 159.5 333.99999999999994 165.7 333.99999999999994 C 172.29999999999998 333.99999999999994 178.1 336.09999999999997 182.29999999999998 340.19999999999993 C 187.1 345 190 352.1 190 360.8 M 380 323.5 C 379.6 323.5 379.6 323.5 379.6 323.9 C 379.6 324.29999999999995 379.6 324.29999999999995 380 324.29999999999995 C 385 325.9 385.8 327.19999999999993 385.8 334.59999999999997 L 385.8 360.7 L 353.1 323.4 L 330.70000000000005 323.4 C 330.70000000000005 323.4 330.30000000000007 323.4 330.30000000000007 323.79999999999995 C 330.30000000000007 324.19999999999993 330.30000000000007 324.19999999999993 330.70000000000005 324.19999999999993 C 336.90000000000003 326.69999999999993 338.6 329.5999999999999 338.6 337.3999999999999 L 338.6 386.2999999999999 C 338.6 392.8999999999999 337.8 394.1999999999999 332.40000000000003 396.1999999999999 C 332.00000000000006 396.1999999999999 332.00000000000006 396.59999999999985 332.00000000000006 396.59999999999985 L 332.40000000000003 396.99999999999983 L 357.20000000000005 396.99999999999983 C 357.20000000000005 396.99999999999983 357.6 396.99999999999983 357.6 396.59999999999985 C 357.6 396.1999999999999 357.6 396.1999999999999 357.20000000000005 396.1999999999999 C 351.80000000000007 394.09999999999985 351.00000000000006 392.89999999999986 351.00000000000006 386.2999999999999 L 351.00000000000006 345 L 397.40000000000003 399.2 C 397.40000000000003 399.2 397.8 399.59999999999997 397.8 399.2 L 398.2 398.8 L 398.2 335.1 C 398.2 327.20000000000005 398.59999999999997 326.40000000000003 403.59999999999997 324.3 C 403.99999999999994 324.3 403.99999999999994 323.90000000000003 403.99999999999994 323.90000000000003 L 403.59999999999997 323.50000000000006 C 403.6 323.5 380 323.5 380 323.5 z M 296 328 C 296 327.6 296.4 327.2 296.4 327.2 C 296.4 326.4 296 326 294.29999999999995 324.7 C 293.9 324.7 293.9 324.3 293.9 324.3 L 294.29999999999995 323.90000000000003 L 313.79999999999995 323.90000000000003 C 313.79999999999995 323.90000000000003 314.19999999999993 323.90000000000003 314.19999999999993 324.3 C 314.19999999999993 324.7 314.19999999999993 324.7 313.79999999999995 324.7 C 310.49999999999994 325.9 309.29999999999995 326.8 307.99999999999994 329.7 L 281.49999999999994 399.2 C 281.49999999999994 399.59999999999997 281.09999999999997 399.59999999999997 281.09999999999997 399.59999999999997 L 280.7 399.59999999999997 L 264.5 362.7 C 262.8 367.3 249.6 399.59999999999997 249.6 399.59999999999997 L 249.2 399.99999999999994 C 249.2 399.99999999999994 248.79999999999998 399.99999999999994 248.79999999999998 399.59999999999997 L 219.39999999999998 330 C 218.2 327.1 217.29999999999998 326.3 213.59999999999997 325.1 L 213.19999999999996 324.70000000000005 L 213.59999999999997 324.30000000000007 L 237.19999999999996 324.30000000000007 C 237.19999999999996 324.30000000000007 237.59999999999997 324.30000000000007 237.59999999999997 324.70000000000005 C 237.59999999999997 325.1 237.59999999999997 325.1 237.19999999999996 325.1 C 235.49999999999997 325.90000000000003 235.09999999999997 326.70000000000005 235.09999999999997 327.6 C 235.09999999999997 328 249.99999999999997 364.90000000000003 249.99999999999997 364.90000000000003 L 257 346.70000000000005 L 250 329.70000000000005 C 248.3 327.20000000000005 247.5 326.80000000000007 244.2 325.20000000000005 L 243.79999999999998 324.80000000000007 C 243.79999999999998 324.4000000000001 243.79999999999998 324.4000000000001 244.2 324.4000000000001 L 261.2 324.4000000000001 C 261.2 324.4000000000001 261.59999999999997 324.4000000000001 261.59999999999997 324.80000000000007 L 264.9 333.1000000000001 L 268.2 324.80000000000007 C 268.2 324.4000000000001 268.59999999999997 324.4000000000001 268.59999999999997 324.4000000000001 L 283.09999999999997 324.4000000000001 C 283.49999999999994 324.4000000000001 283.49999999999994 324.4000000000001 283.49999999999994 324.80000000000007 C 283.49999999999994 325.20000000000005 283.49999999999994 325.20000000000005 283.09999999999997 325.20000000000005 C 279.4 326.40000000000003 277.29999999999995 328.1 276.49999999999994 330.1 L 273.19999999999993 342.1 L 282.29999999999995 364.40000000000003 L 296 328 M 119.7 209.3 C 124.7 209.3 128.8 205.20000000000002 128.8 200.20000000000002 C 128.8 195.20000000000002 124.70000000000002 191.10000000000002 119.70000000000002 191.10000000000002 C 114.70000000000002 191.10000000000002 110.60000000000002 195.20000000000002 110.60000000000002 200.20000000000002 C 110.5 205.5 114.7 209.7 119.7 209.3 M 122.1 177.8 C 122.1 172.4 117.6 168.3 112.6 168.3 C 107.19999999999999 168.3 103.1 172.8 103.1 177.8 C 103.1 183.20000000000002 107.6 187.3 113 187.3 C 118 187.3 122.1 183.2 122.1 177.8 M 100.2 219.6 C 105.2 219.6 108.9 215.9 108.9 210.9 C 108.9 206.4 105.2 202.20000000000002 100.2 202.20000000000002 C 95.60000000000001 202.20000000000002 91.5 205.9 91.5 210.9 C 91.5 215.9 95.2 219.6 100.2 219.6 M 91.1 200.2 C 96.1 200.2 100.19999999999999 196.1 100.19999999999999 191.1 C 100.19999999999999 186.1 96.1 182 91.1 182 C 86.1 182 82 186.1 82 191.1 C 82 196 86.1 200.2 91.1 200.2 M 90.3 167.1 C 90.3 161.7 86.2 157.6 80.8 157.6 C 75.39999999999999 157.6 71.3 161.7 71.3 167.1 C 71.3 172.5 75.39999999999999 176.6 80.8 176.6 C 85.7 176.6 90.3 172 90.3 167.1 M 72 185.3 C 72 179.9 67.9 175.8 62.5 175.8 C 57.099999999999994 175.8 53 179.9 53 185.3 C 53 190.70000000000002 57.1 194.8 62.5 194.8 C 67.5 195.2 72 190.6 72 185.3 M 64.6 148 C 70.39999999999999 148 74.89999999999999 143.5 74.89999999999999 137.6 C 74.89999999999999 131.79999999999998 70.39999999999999 127.3 64.6 127.3 C 58.8 127.3 54.3 131.8 54.3 137.6 C 53.8 143.5 58.8 148 64.6 148 M 43.9 150.9 C 38.1 150.9 33.599999999999994 155.4 33.599999999999994 161.3 C 33.599999999999994 167.10000000000002 38.199999999999996 171.60000000000002 43.89999999999999 171.60000000000002 C 49.69999999999999 171.60000000000002 54.29999999999999 167.00000000000003 54.29999999999999 161.3 C 54.7 155.5 49.7 150.9 43.9 150.9 M 79.9 117.4 C 79.9 123.60000000000001 84.9 128.6 91.10000000000001 128.6 C 97.30000000000001 128.6 102.30000000000001 123.69999999999999 101.9 117.39999999999999 C 101.9 111.19999999999999 96.9 106.19999999999999 90.7 106.6 C 84.9 106.6 79.9 111.6 79.9 117.4 M 17.8 128.1 C 11.600000000000001 128.1 6.600000000000001 133.1 6.600000000000001 139.29999999999998 C 6.600000000000001 145.49999999999997 11.600000000000001 150.49999999999997 17.8 150.49999999999997 C 24 150.49999999999997 29 145.49999999999997 29 139.29999999999998 C 29 133.1 24 128.1 17.8 128.1 M 123.8 111.2 C 130.4 111.2 135.4 105.8 135 99.2 C 135 93 129.6 87.60000000000001 123.4 87.60000000000001 C 117.2 87.60000000000001 111.80000000000001 93.00000000000001 112.2 99.60000000000001 C 112.2 106.2 117.6 111.2 123.8 111.2 M 165.6 76 C 158.6 76 152.79999999999998 81.8 152.79999999999998 88.8 C 152.79999999999998 95.8 158.6 101.6 165.6 101.6 C 172.6 101.6 178.4 95.8 178.4 88.8 C 178.4 81.8 172.6 76 165.6 76 M 165.6 117 C 159 117 154 122.4 154 128.6 C 154 135.2 159.4 140.2 165.6 140.2 C 172.2 140.2 177.2 135.2 177.2 128.6 C 177.2 122.4 171.8 117 165.6 117 M 165.6 149.2 C 159.4 149.2 154.4 154.2 154.4 160.39999999999998 C 154.4 166.59999999999997 159.4 171.59999999999997 165.6 171.59999999999997 C 171.79999999999998 171.59999999999997 176.79999999999998 166.59999999999997 176.79999999999998 160.39999999999998 C 176.8 154.2 171.8 149.2 165.6 149.2 M 127.1 167.5 C 127.1 172.9 131.6 177.4 137.4 177.4 C 142.8 177.4 147.3 172.4 147.3 167.1 C 147.3 161.7 142.8 157.2 137 157.2 C 131.2 157.1 127.1 161.7 127.1 167.5 M 94.4 150.9 C 94.4 156.3 98.9 160.8 104.30000000000001 160.8 C 110.10000000000001 160.8 114.20000000000002 156.20000000000002 114.20000000000002 150.9 C 114.20000000000002 145.6 109.70000000000002 141 104.30000000000001 141 C 98.5 140.6 94 145.5 94.4 150.9 M 121.3 137.7 C 121.3 143.5 126.3 148.1 132.1 148.1 C 137.9 148.1 142.5 143.1 142.5 137.29999999999998 C 142.5 131.49999999999997 137.5 126.99999999999999 131.7 126.99999999999999 C 125.9 127.3 120.9 131.9 121.3 137.7 M 131.7 192.3 C 131.7 197.70000000000002 136.2 201.8 141.6 201.8 C 147 201.8 151.1 197.20000000000002 150.7 191.9 C 150.7 186.5 146.2 182.4 141.2 182.8 C 135.4 182.8 131.2 186.9 131.7 192.3 M 135 214.7 C 135 220.1 139.5 224.2 144.5 223.79999999999998 C 149.9 223.79999999999998 154 219.2 153.6 214.29999999999998 C 153.6 208.89999999999998 149.1 204.79999999999998 143.7 205.2 C 138.7 205.1 134.5 209.3 135 214.7 M 165.6 176.6 C 159.79999999999998 176.6 154.79999999999998 181.2 154.79999999999998 187 C 154.79999999999998 192.8 159.29999999999998 197.3 165.6 197.3 C 171.4 197.3 175.9 192.8 175.9 187 C 175.9 181.2 171.4 176.6 165.6 176.6 M 165.6 201.4 C 160.2 201.4 155.7 206 155.7 211.3 C 155.7 216.70000000000002 160.2 221.20000000000002 165.6 221.20000000000002 C 171 221.20000000000002 175.5 216.70000000000002 175.5 211.3 C 175.5 206 171 201.4 165.6 201.4 M 71.2 95.4 C 77.8 95.4 83.2 90 83.2 83 C 83.2 76.4 77.8 71 70.8 71 C 64.2 71 58.8 76.4 58.8 83 C 59.2 90.1 64.6 95.4 71.2 95.4 M 211.5 191.5 C 206.5 191.5 202.4 195.6 202.4 200.6 C 202.4 205.6 206.5 209.7 211.5 209.7 C 216.5 209.7 220.6 206 220.6 200.6 C 220.7 195.6 216.5 191.5 211.5 191.5 M 228.1 178.2 C 228.1 172.79999999999998 224 168.7 218.6 168.7 C 213.2 168.7 209.1 172.79999999999998 209.1 178.2 C 209.1 183.6 213.2 187.7 218.6 187.7 C 223.5 187.7 227.7 183.2 228.1 178.2 M 231 219.6 C 236 219.6 239.7 215.9 239.7 210.9 C 239.7 206.4 236 202.20000000000002 231 202.20000000000002 C 226 202.20000000000002 222.3 205.9 222.3 210.9 C 222.3 215.9 226 219.6 231 219.6 M 248.8 191 C 248.8 186 244.70000000000002 181.9 239.70000000000002 181.9 C 234.70000000000002 181.9 230.60000000000002 186 230.60000000000002 191 C 230.60000000000002 196 234.70000000000002 200.1 239.70000000000002 200.1 C 245.1 200.2 248.8 196 248.8 191 M 256.7 196.9 C 251.29999999999998 196.9 247.2 201 247.2 206.4 C 247.2 209.3 248.89999999999998 211.8 250.89999999999998 213.4 C 250.09999999999997 213 249.29999999999998 213 247.99999999999997 213 C 242.99999999999997 213 238.89999999999998 217.1 238.89999999999998 222.1 C 238.89999999999998 224.6 239.7 226.6 241.39999999999998 228.29999999999998 L 240.59999999999997 228.29999999999998 C 236.09999999999997 228.29999999999998 231.89999999999998 231.99999999999997 231.89999999999998 236.99999999999997 C 231.89999999999998 238.19999999999996 232.29999999999998 239.49999999999997 232.7 240.69999999999996 C 230.6 241.49999999999997 228.6 243.19999999999996 227.7 245.69999999999996 C 228.1 244.89999999999995 228.1 243.99999999999997 228.1 243.19999999999996 C 228.1 240.69999999999996 226.9 238.59999999999997 225.6 236.99999999999997 C 229.7 236.19999999999996 232.2 232.89999999999998 232.2 228.69999999999996 C 232.2 223.69999999999996 228.5 219.99999999999997 223.5 219.99999999999997 C 219 219.99999999999997 214.8 223.69999999999996 214.8 228.69999999999996 C 214.8 230.79999999999995 215.60000000000002 232.79999999999995 216.9 234.49999999999997 C 213.6 235.29999999999998 211.1 237.39999999999998 210.3 240.29999999999998 L 210.3 238.2 C 210.3 234.89999999999998 208.60000000000002 232.39999999999998 206.20000000000002 230.7 C 210.70000000000002 230.7 214.50000000000003 226.6 214.9 221.6 C 214.9 216.6 210.8 212.5 205.8 212.5 C 200.8 212.5 196.70000000000002 216.6 196.70000000000002 221.6 C 196.70000000000002 224.9 198.4 227.4 200.8 229.1 C 197.10000000000002 229.1 194.20000000000002 231.6 192.5 234.9 L 192.5 234.1 C 192.5 229.2 188.4 225 183.4 225 C 178.9 225 175.5 227.9 174.70000000000002 232 L 174.70000000000002 231.6 C 174.70000000000002 226.6 170.60000000000002 222.9 165.60000000000002 222.9 C 160.60000000000002 222.9 156.50000000000003 227 156.50000000000003 231.6 L 156.50000000000003 232.4 C 155.70000000000002 228.3 151.90000000000003 225 147.40000000000003 225 C 142.40000000000003 225 138.30000000000004 229.1 138.30000000000004 234.1 L 138.30000000000004 234.9 C 137.10000000000005 231.6 133.80000000000004 229.1 130.00000000000003 229.1 C 132.50000000000003 227.4 134.50000000000003 224.5 134.50000000000003 221.6 C 134.50000000000003 216.6 130.40000000000003 212.5 125.00000000000003 212.5 C 120.00000000000003 212.5 115.90000000000003 216.6 115.90000000000003 221.6 C 115.90000000000003 226.6 120.00000000000003 230.29999999999998 124.60000000000004 230.7 C 122.10000000000004 232.29999999999998 120.50000000000004 234.79999999999998 120.50000000000004 238.2 C 120.50000000000004 239 120.50000000000004 239.89999999999998 120.90000000000005 240.7 C 120.10000000000005 237.39999999999998 117.20000000000005 234.89999999999998 113.90000000000005 234.5 C 115.10000000000005 232.9 116.40000000000005 231.2 116.40000000000005 228.7 C 116.40000000000005 223.7 112.70000000000005 220 107.70000000000005 220 C 103.20000000000005 220 99.00000000000004 223.7 99.00000000000004 228.7 C 99.00000000000004 232.79999999999998 101.90000000000005 236.2 105.60000000000004 237 C 103.90000000000003 238.7 103.10000000000004 240.7 103.10000000000004 243.2 C 103.10000000000004 244 103.10000000000004 244.79999999999998 103.50000000000004 245.7 C 102.70000000000005 243.2 100.60000000000004 241.6 98.50000000000004 240.7 C 98.90000000000005 239.89999999999998 99.30000000000004 238.2 99.30000000000004 237 C 99.30000000000004 232.4 95.60000000000004 228.3 90.60000000000004 228.3 L 89.80000000000004 228.3 C 91.50000000000004 226.60000000000002 92.30000000000004 224.60000000000002 92.30000000000004 222.10000000000002 C 92.30000000000004 217.10000000000002 88.20000000000005 213.00000000000003 83.20000000000005 213.00000000000003 C 82.00000000000004 213.00000000000003 81.10000000000005 213.40000000000003 80.30000000000004 213.40000000000003 C 82.40000000000003 211.70000000000005 84.00000000000004 209.30000000000004 84.00000000000004 206.40000000000003 C 84.00000000000004 201.00000000000003 79.90000000000005 196.90000000000003 74.50000000000004 196.90000000000003 C 69.50000000000004 196.90000000000003 65.00000000000004 201.00000000000003 65.00000000000004 206.40000000000003 C 65.00000000000004 211.30000000000004 69.10000000000004 215.90000000000003 74.50000000000004 215.90000000000003 C 75.70000000000005 215.90000000000003 76.60000000000004 215.50000000000003 77.80000000000004 215.10000000000002 C 75.70000000000005 216.8 74.10000000000004 219.20000000000002 74.10000000000004 222.10000000000002 C 74.10000000000004 227.10000000000002 78.20000000000003 231.20000000000002 83.20000000000003 231.20000000000002 C 83.60000000000004 231.20000000000002 84.00000000000003 231.20000000000002 84.40000000000003 230.8 C 83.20000000000003 232.4 81.90000000000003 234.5 81.90000000000003 236.60000000000002 C 81.90000000000003 239.90000000000003 84.00000000000003 243.20000000000002 86.90000000000003 244.50000000000003 C 86.10000000000004 245.70000000000002 85.70000000000003 247.00000000000003 85.70000000000003 248.60000000000002 C 85.70000000000003 251.50000000000003 87.30000000000003 254.40000000000003 89.40000000000003 256.1 C 89.00000000000003 256.90000000000003 89.00000000000003 257.8 89.00000000000003 259 C 89.00000000000003 261.5 89.80000000000003 263.9 91.90000000000003 265.6 C 91.50000000000003 266.8 91.10000000000004 268.1 91.10000000000004 269.3 L 91.10000000000004 271 C 91.90000000000003 275.5 96.10000000000004 278.9 100.60000000000004 278.5 C 105.60000000000004 278.1 109.30000000000004 274.3 109.30000000000004 269.4 C 111.40000000000003 271.5 113.90000000000003 273.09999999999997 117.20000000000005 273.09999999999997 C 122.20000000000005 272.7 125.90000000000005 268.99999999999994 125.90000000000005 263.99999999999994 C 127.60000000000005 266.8999999999999 130.40000000000003 268.59999999999997 133.80000000000004 268.59999999999997 C 137.50000000000003 268.59999999999997 140.80000000000004 266.49999999999994 142.10000000000005 263.2 C 143.80000000000004 265.7 146.20000000000005 267.3 149.60000000000005 267.3 C 153.30000000000004 267.3 156.20000000000005 265.2 157.90000000000006 262.40000000000003 C 159.60000000000005 265.3 162.50000000000006 266.90000000000003 165.80000000000007 266.90000000000003 C 169.10000000000008 266.90000000000003 172.00000000000006 265.20000000000005 173.70000000000007 262.40000000000003 C 175.40000000000006 265.3 178.30000000000007 267.3 182.00000000000009 267.3 C 184.9000000000001 267.3 187.8000000000001 265.6 189.50000000000009 263.2 C 190.70000000000007 266.5 194.00000000000009 268.59999999999997 197.8000000000001 268.59999999999997 C 201.1000000000001 268.59999999999997 204.00000000000009 266.9 205.7000000000001 263.99999999999994 C 206.1000000000001 268.59999999999997 209.4000000000001 272.69999999999993 214.4000000000001 272.69999999999993 C 217.7000000000001 272.69999999999993 220.2000000000001 271.3999999999999 222.3000000000001 268.99999999999994 C 222.3000000000001 273.99999999999994 226.00000000000009 277.69999999999993 231.00000000000009 278.09999999999997 C 234.3000000000001 278.09999999999997 237.20000000000007 276.9 238.9000000000001 274.4 C 240.10000000000008 272.79999999999995 241.00000000000009 270.7 240.60000000000008 268.59999999999997 C 240.60000000000008 267.29999999999995 240.20000000000007 266.09999999999997 239.80000000000007 264.9 C 241.50000000000006 263.2 242.70000000000007 260.79999999999995 242.70000000000007 258.29999999999995 C 242.70000000000007 257.09999999999997 242.70000000000007 256.19999999999993 242.30000000000007 255.39999999999995 C 244.80000000000007 253.69999999999996 246.00000000000006 251.29999999999995 246.00000000000006 247.99999999999994 C 246.00000000000006 246.29999999999995 245.60000000000005 245.09999999999994 244.80000000000007 243.89999999999995 C 247.70000000000007 242.69999999999996 249.80000000000007 239.79999999999995 249.80000000000007 235.99999999999994 C 249.80000000000007 233.89999999999995 249.00000000000006 231.89999999999995 247.30000000000007 230.19999999999993 C 247.70000000000007 230.19999999999993 248.10000000000008 230.59999999999994 248.50000000000006 230.59999999999994 C 253.50000000000006 230.59999999999994 257.6000000000001 226.49999999999994 257.6000000000001 221.49999999999994 C 257.6000000000001 218.59999999999994 256.4000000000001 216.09999999999994 254.30000000000007 214.49999999999994 C 255.10000000000008 214.89999999999995 256.4000000000001 215.29999999999995 257.6000000000001 215.29999999999995 C 263.00000000000006 215.29999999999995 267.1000000000001 211.19999999999996 267.1000000000001 205.79999999999995 C 266.2 201 261.6 196.9 256.7 196.9 M 260 167.1 C 260 161.7 255.9 157.6 250.5 157.6 C 245.1 157.6 241 161.7 241 167.1 C 241 172.5 245.1 176.6 250.5 176.6 C 255.9 176.6 260 172 260 167.1 M 268.7 175.7 C 263.3 175.7 259.2 179.79999999999998 259.2 185.2 C 259.2 190.6 263.3 194.7 268.7 194.7 C 274.09999999999997 194.7 278.2 190.6 278.2 185.2 C 278.2 180.3 274 175.7 268.7 175.7 M 255.8 137.7 C 255.8 143.5 260.8 148.1 266.1 148.1 C 271.90000000000003 148.1 276.90000000000003 143.6 276.90000000000003 137.7 C 276.90000000000003 131.89999999999998 272.40000000000003 127.39999999999999 266.1 127.39999999999999 C 260.8 127.3 255.8 131.9 255.8 137.7 M 286.9 150.9 C 281.09999999999997 150.9 276.59999999999997 155.4 276.59999999999997 161.3 C 276.59999999999997 167.10000000000002 281.2 171.60000000000002 286.9 171.60000000000002 C 292.7 171.60000000000002 297.2 167.00000000000003 297.2 161.3 C 297.6 155.5 292.7 150.9 286.9 150.9 M 240.1 128.5 C 246.29999999999998 128.5 251.29999999999998 123.6 251.29999999999998 117.3 C 251.29999999999998 111.1 246.29999999999998 106.1 240.49999999999997 106.1 C 234.29999999999998 106.1 229.29999999999998 110.6 229.29999999999998 116.89999999999999 C 228.9 123.6 233.9 128.5 240.1 128.5 M 313 128.1 C 306.8 128.1 301.8 133.1 301.8 139.29999999999998 C 301.8 145.49999999999997 306.8 150.49999999999997 313 150.49999999999997 C 319.2 150.49999999999997 324.2 145.49999999999997 324.2 139.29999999999998 C 324.1 133.1 319.2 128.1 313 128.1 M 207 111.2 C 213.6 111.2 219 106.2 219 100 C 219 93.4 214 88 207.4 88 C 201.20000000000002 88 195.8 93 195.8 99.6 C 195.8 105.8 200.8 110.7 207 111.2 M 193.7 177 C 199.1 177 203.6 172.9 204 167.1 C 204 161.7 199.9 157.2 194.1 156.7 C 188.7 156.7 183.79999999999998 160.79999999999998 183.79999999999998 166.6 C 183.79999999999998 172.4 188.4 177 193.7 177 M 226.4 160.8 C 231.8 160.8 236.70000000000002 156.20000000000002 236.70000000000002 150.9 C 236.70000000000002 145.6 232.10000000000002 141 226.8 140.6 C 221.4 140.6 216.4 145.2 216.4 150.5 C 216.5 156.3 221.1 160.8 226.4 160.8 M 199.1 148 C 204.9 148 209.9 143.5 209.9 137.6 C 209.9 131.79999999999998 205.4 126.8 199.6 126.8 C 193.79999999999998 126.8 188.79999999999998 131.4 188.79999999999998 137.1 C 188.8 143 193.3 148 199.1 148 M 189.6 201.4 C 195 201.4 199.1 197.3 199.5 191.9 C 199.5 186.5 195.4 182.4 190.4 182.4 C 185 182.4 180.9 186.5 180.5 191.5 C 180.5 197.3 184.6 201.4 189.6 201.4 M 186.7 223.7 C 192.1 223.7 196.2 219.6 196.6 214.6 C 196.6 209.2 192.5 205.1 187.5 205.1 C 182.1 205.1 178 209.2 177.6 214.2 C 177.2 219.6 181.3 223.7 186.7 223.7 M 259.6 95.4 C 266.20000000000005 95.4 271.6 90 272 83.4 C 272 76.80000000000001 266.6 71.4 260 71.4 C 253.4 71.4 247.6 76.80000000000001 247.6 83.4 C 247.5 89.6 252.9 95 259.6 95.4 M 165.6 53.2 C 173.5 53.2 179.7 47 179.7 39.1 C 179.7 31.700000000000003 173.1 25.400000000000002 165.6 25.400000000000002 C 157.7 25.400000000000002 151.5 31.6 151.5 39.5 C 151.5 47 157.7 53.2 165.6 53.2 M -14 471.7 L -14 491.59999999999997 L 14.100000000000001 491.59999999999997 L 14.100000000000001 471.7 L 24.400000000000002 471.7 L 24.400000000000002 523.8 L 14.1 523.8 L 14.1 501.9 L -14 501.9 L -14 523.8 L -24.4 523.8 L -24.4 471.69999999999993 L -14 471.69999999999993 z M 43.1 497.8 C 43.1 483.3 54.7 470.1 75 470.1 C 95.7 470.1 106.9 482.90000000000003 106.9 497.8 C 106.9 512.3 95.30000000000001 525.5 75 525.5 C 54.7 525.5 43.1 512.2 43.1 497.8 z M 96.5 497.8 C 96.5 488.7 87.8 480.40000000000003 75 480.40000000000003 C 62.2 480.40000000000003 53.5 488.70000000000005 53.5 497.8 C 53.5 506.90000000000003 62.2 515.2 75 515.2 C 87.8 515.1 96.5 506.9 96.5 497.8 z M 166.4 471.7 L 166.4 482 L 147.4 482 L 147.4 523.4 L 137 523.4 L 137 482 L 118 482 L 118 471.6 C 118 471.7 166.4 471.7 166.4 471.7 z M 232.7 471.7 L 232.7 482 L 196.7 482 L 196.7 491.5 L 215.7 491.5 L 215.7 501.8 L 196.7 501.8 L 196.7 513 L 233.5 513 L 233.5 523.4 L 186.3 523.4 L 186.3 471.2 L 232.70000000000002 471.2 L 232.7 471.7 L 232.7 471.7 z M 267 471.7 L 267 513.5 L 296.8 513.5 L 296.8 523.8 L 256.6 523.8 L 256.6 471.69999999999993 L 267 471.69999999999993 L 267 471.7 z M 314.6 507.3 C 323.70000000000005 513.1 332.40000000000003 515.2 341.5 515.2 C 346.9 515.2 355.6 514 355.6 508.20000000000005 C 355.6 504.1 351.1 502.80000000000007 347.70000000000005 502.80000000000007 L 332.00000000000006 502.4000000000001 C 319.20000000000005 502.0000000000001 313.00000000000006 494.5000000000001 313.00000000000006 486.7000000000001 C 313.00000000000006 478.8000000000001 318.80000000000007 470.5000000000001 337.40000000000003 470.5000000000001 C 351.1 470.5000000000001 359.3 475.9000000000001 362.6 477.5000000000001 L 358.1 486.60000000000014 C 354 484.5000000000001 346.5 480.8000000000001 336.20000000000005 480.8000000000001 C 330.80000000000007 480.8000000000001 323.80000000000007 482.10000000000014 323.80000000000007 486.60000000000014 C 323.80000000000007 490.70000000000016 329.6000000000001 491.60000000000014 332.9000000000001 491.60000000000014 L 346.6000000000001 492.0000000000001 C 358.6000000000001 492.4000000000001 366.00000000000006 497.4000000000001 366.00000000000006 508.5000000000001 C 366.00000000000006 518.0000000000001 358.6000000000001 525.5000000000001 341.6000000000001 525.5000000000001 C 327.50000000000006 525.5000000000001 317.2000000000001 521.8000000000001 309.7000000000001 516.4000000000001 L 314.6 507.3 L 314.6 507.3 z M -3.3 323.5 C -8.3 322.7 -15.3 322.7 -19.5 322.7 C -34.4 322.7 -47.2 327.2 -55.9 335.9 C -62.5 342.09999999999997 -66.2 350.79999999999995 -66.2 360.29999999999995 C -66.2 370.19999999999993 -62.5 378.99999999999994 -55.900000000000006 385.99999999999994 C -47.2 394.29999999999995 -34.800000000000004 399.19999999999993 -20.300000000000004 399.19999999999993 C -11.200000000000005 399.19999999999993 -5.400000000000004 398.3999999999999 7.799999999999997 394.69999999999993 C 8.199999999999998 394.69999999999993 8.199999999999998 394.29999999999995 8.199999999999998 394.29999999999995 L 9.899999999999997 378.19999999999993 C 9.899999999999997 377.79999999999995 9.899999999999997 377.79999999999995 9.499999999999996 377.79999999999995 L 9.1 377.79999999999995 C 3.6999999999999993 384.4 -5.800000000000001 388.19999999999993 -16.6 388.19999999999993 C -26.1 388.19999999999993 -34 385.29999999999995 -39.400000000000006 379.8999999999999 C -44.400000000000006 374.99999999999994 -46.900000000000006 368.2999999999999 -46.900000000000006 360.3999999999999 C -46.900000000000006 352.0999999999999 -44.00000000000001 345.0999999999999 -38.60000000000001 340.0999999999999 C -33.20000000000001 334.69999999999993 -25.40000000000001 331.7999999999999 -16.300000000000008 331.7999999999999 C -6.000000000000007 331.7999999999999 1.499999999999993 334.6999999999999 6.499999999999993 340.8999999999999 C 6.499999999999993 340.8999999999999 6.899999999999993 341.2999999999999 6.899999999999993 340.8999999999999 C 7.299999999999994 340.8999999999999 7.299999999999994 340.49999999999994 7.299999999999994 340.49999999999994 L 7.299999999999994 321.8999999999999 C 7.299999999999994 321.8999999999999 7.299999999999994 321.49999999999994 6.899999999999993 321.49999999999994 L 6.7 321.49999999999994 C 5.5 323.19999999999993 4.2 323.59999999999997 2.2 323.59999999999997 L -3.3 323.5 M 79.5 385.2 C 82.4 389.8 85.7 393.09999999999997 90.7 397.59999999999997 L 114.30000000000001 397.59999999999997 C 114.70000000000002 397.59999999999997 114.70000000000002 397.59999999999997 114.70000000000002 397.2 C 114.70000000000002 396.8 114.70000000000002 396.8 114.30000000000001 396.8 C 107.70000000000002 394.3 105.20000000000002 392.7 100.20000000000002 386 L 91.50000000000001 375.6 C 91.10000000000001 374.8 90.30000000000001 374.3 89.40000000000002 373.1 C 87.30000000000003 370.6 84.80000000000003 367.3 81.50000000000001 364.8 C 98.50000000000001 361.5 100.50000000000001 350.7 100.50000000000001 342.90000000000003 C 100.50000000000001 337.90000000000003 98.80000000000001 333.8 95.50000000000001 330.50000000000006 C 91.00000000000001 326.00000000000006 83.10000000000001 323.50000000000006 72.30000000000001 323.50000000000006 L 34 323.50000000000006 C 34 323.50000000000006 33.6 323.50000000000006 33.6 323.90000000000003 C 33.6 324.3 33.6 324.3 34 324.3 C 41 326.40000000000003 41.9 327.6 41.9 334.6 L 41.9 386.40000000000003 C 41.9 393.00000000000006 41.1 394.3 34.4 396.3 L 34 396.7 C 34 397.09999999999997 34.4 397.09999999999997 34.4 397.09999999999997 L 65 397.09999999999997 C 65.4 397.09999999999997 65.4 397.09999999999997 65.4 396.7 C 65.4 396.3 65.4 396.3 65 396.3 C 58 394.2 57.1 393 57.1 386.40000000000003 L 57.1 366.1 L 62.1 366.1 C 65 367.40000000000003 71.2 373.6 74.5 377.3 L 79.5 385.2 M 57.1 334.7 L 68.3 334.7 C 74.5 334.7 79.89999999999999 336.4 82.8 339.3 C 84.5 340.90000000000003 85.3 343 85.3 345.5 C 85.3 348 84.5 350.1 83.2 351.3 C 80.7 353.8 75.7 355 68.3 355 L 57.1 355 L 57.1 334.7 z M 165.6 321.9 C 153.6 321.9 143.29999999999998 325.59999999999997 135.79999999999998 332.7 C 128.29999999999998 339.7 124.19999999999999 349.3 124.19999999999999 360.4 C 124.19999999999999 370.79999999999995 128.29999999999998 380.7 135.39999999999998 388.2 C 143.29999999999998 396 153.59999999999997 400.2 165.59999999999997 400.2 C 177.19999999999996 400.2 187.89999999999998 396.09999999999997 195.79999999999995 388.2 C 203.29999999999995 381.09999999999997 206.99999999999994 371.2 206.99999999999994 360.4 C 206.99999999999994 349.59999999999997 203.29999999999995 340.59999999999997 196.59999999999994 333.5 C 188.8 326 178 321.9 165.6 321.9 M 190 360.8 C 190 368.7 187.5 375.7 183 380.7 C 178.4 385.7 172.2 388.59999999999997 165.2 388.59999999999997 C 159 388.59999999999997 153.6 386.09999999999997 149.1 381.99999999999994 C 143.7 376.59999999999997 140.79999999999998 369.19999999999993 140.79999999999998 360.8999999999999 C 140.79999999999998 352.99999999999994 143.29999999999998 345.99999999999994 148.7 340.99999999999994 C 153.2 336.49999999999994 159.5 333.99999999999994 165.7 333.99999999999994 C 172.29999999999998 333.99999999999994 178.1 336.09999999999997 182.29999999999998 340.19999999999993 C 187.1 345 190 352.1 190 360.8 M 380 323.5 C 379.6 323.5 379.6 323.5 379.6 323.9 C 379.6 324.29999999999995 379.6 324.29999999999995 380 324.29999999999995 C 385 325.9 385.8 327.19999999999993 385.8 334.59999999999997 L 385.8 360.7 L 353.1 323.4 L 330.70000000000005 323.4 C 330.70000000000005 323.4 330.30000000000007 323.4 330.30000000000007 323.79999999999995 C 330.30000000000007 324.19999999999993 330.30000000000007 324.19999999999993 330.70000000000005 324.19999999999993 C 336.90000000000003 326.69999999999993 338.6 329.5999999999999 338.6 337.3999999999999 L 338.6 386.2999999999999 C 338.6 392.8999999999999 337.8 394.1999999999999 332.40000000000003 396.1999999999999 C 332.00000000000006 396.1999999999999 332.00000000000006 396.59999999999985 332.00000000000006 396.59999999999985 L 332.40000000000003 396.99999999999983 L 357.20000000000005 396.99999999999983 C 357.20000000000005 396.99999999999983 357.6 396.99999999999983 357.6 396.59999999999985 C 357.6 396.1999999999999 357.6 396.1999999999999 357.20000000000005 396.1999999999999 C 351.80000000000007 394.09999999999985 351.00000000000006 392.89999999999986 351.00000000000006 386.2999999999999 L 351.00000000000006 345 L 397.40000000000003 399.2 C 397.40000000000003 399.2 397.8 399.59999999999997 397.8 399.2 L 398.2 398.8 L 398.2 335.1 C 398.2 327.20000000000005 398.59999999999997 326.40000000000003 403.59999999999997 324.3 C 403.99999999999994 324.3 403.99999999999994 323.90000000000003 403.99999999999994 323.90000000000003 L 403.59999999999997 323.50000000000006 C 403.6 323.5 380 323.5 380 323.5 z M 296 328 C 296 327.6 296.4 327.2 296.4 327.2 C 296.4 326.4 296 326 294.29999999999995 324.7 C 293.9 324.7 293.9 324.3 293.9 324.3 L 294.29999999999995 323.90000000000003 L 313.79999999999995 323.90000000000003 C 313.79999999999995 323.90000000000003 314.19999999999993 323.90000000000003 314.19999999999993 324.3 C 314.19999999999993 324.7 314.19999999999993 324.7 313.79999999999995 324.7 C 310.49999999999994 325.9 309.29999999999995 326.8 307.99999999999994 329.7 L 281.49999999999994 399.2 C 281.49999999999994 399.59999999999997 281.09999999999997 399.59999999999997 281.09999999999997 399.59999999999997 L 280.7 399.59999999999997 L 264.5 362.7 C 262.8 367.3 249.6 399.59999999999997 249.6 399.59999999999997 L 249.2 399.99999999999994 C 249.2 399.99999999999994 248.79999999999998 399.99999999999994 248.79999999999998 399.59999999999997 L 219.39999999999998 330 C 218.2 327.1 217.29999999999998 326.3 213.59999999999997 325.1 L 213.19999999999996 324.70000000000005 L 213.59999999999997 324.30000000000007 L 237.19999999999996 324.30000000000007 C 237.19999999999996 324.30000000000007 237.59999999999997 324.30000000000007 237.59999999999997 324.70000000000005 C 237.59999999999997 325.1 237.59999999999997 325.1 237.19999999999996 325.1 C 235.49999999999997 325.90000000000003 235.09999999999997 326.70000000000005 235.09999999999997 327.6 C 235.09999999999997 328 249.99999999999997 364.90000000000003 249.99999999999997 364.90000000000003 L 257 346.70000000000005 L 250 329.70000000000005 C 248.3 327.20000000000005 247.5 326.80000000000007 244.2 325.20000000000005 L 243.79999999999998 324.80000000000007 C 243.79999999999998 324.4000000000001 243.79999999999998 324.4000000000001 244.2 324.4000000000001 L 261.2 324.4000000000001 C 261.2 324.4000000000001 261.59999999999997 324.4000000000001 261.59999999999997 324.80000000000007 L 264.9 333.1000000000001 L 268.2 324.80000000000007 C 268.2 324.4000000000001 268.59999999999997 324.4000000000001 268.59999999999997 324.4000000000001 L 283.09999999999997 324.4000000000001 C 283.49999999999994 324.4000000000001 283.49999999999994 324.4000000000001 283.49999999999994 324.80000000000007 C 283.49999999999994 325.20000000000005 283.49999999999994 325.20000000000005 283.09999999999997 325.20000000000005 C 279.4 326.40000000000003 277.29999999999995 328.1 276.49999999999994 330.1 L 273.19999999999993 342.1 L 282.29999999999995 364.40000000000003 L 296 328 M 119.7 209.3 C 124.7 209.3 128.8 205.20000000000002 128.8 200.20000000000002 C 128.8 195.20000000000002 124.70000000000002 191.10000000000002 119.70000000000002 191.10000000000002 C 114.70000000000002 191.10000000000002 110.60000000000002 195.20000000000002 110.60000000000002 200.20000000000002 C 110.5 205.5 114.7 209.7 119.7 209.3 M 122.1 177.8 C 122.1 172.4 117.6 168.3 112.6 168.3 C 107.19999999999999 168.3 103.1 172.8 103.1 177.8 C 103.1 183.20000000000002 107.6 187.3 113 187.3 C 118 187.3 122.1 183.2 122.1 177.8 M 100.2 219.6 C 105.2 219.6 108.9 215.9 108.9 210.9 C 108.9 206.4 105.2 202.20000000000002 100.2 202.20000000000002 C 95.60000000000001 202.20000000000002 91.5 205.9 91.5 210.9 C 91.5 215.9 95.2 219.6 100.2 219.6 M 91.1 200.2 C 96.1 200.2 100.19999999999999 196.1 100.19999999999999 191.1 C 100.19999999999999 186.1 96.1 182 91.1 182 C 86.1 182 82 186.1 82 191.1 C 82 196 86.1 200.2 91.1 200.2 M 90.3 167.1 C 90.3 161.7 86.2 157.6 80.8 157.6 C 75.39999999999999 157.6 71.3 161.7 71.3 167.1 C 71.3 172.5 75.39999999999999 176.6 80.8 176.6 C 85.7 176.6 90.3 172 90.3 167.1 M 72 185.3 C 72 179.9 67.9 175.8 62.5 175.8 C 57.099999999999994 175.8 53 179.9 53 185.3 C 53 190.70000000000002 57.1 194.8 62.5 194.8 C 67.5 195.2 72 190.6 72 185.3 M 64.6 148 C 70.39999999999999 148 74.89999999999999 143.5 74.89999999999999 137.6 C 74.89999999999999 131.79999999999998 70.39999999999999 127.3 64.6 127.3 C 58.8 127.3 54.3 131.8 54.3 137.6 C 53.8 143.5 58.8 148 64.6 148 M 43.9 150.9 C 38.1 150.9 33.599999999999994 155.4 33.599999999999994 161.3 C 33.599999999999994 167.10000000000002 38.199999999999996 171.60000000000002 43.89999999999999 171.60000000000002 C 49.69999999999999 171.60000000000002 54.29999999999999 167.00000000000003 54.29999999999999 161.3 C 54.7 155.5 49.7 150.9 43.9 150.9 M 79.9 117.4 C 79.9 123.60000000000001 84.9 128.6 91.10000000000001 128.6 C 97.30000000000001 128.6 102.30000000000001 123.69999999999999 101.9 117.39999999999999 C 101.9 111.19999999999999 96.9 106.19999999999999 90.7 106.6 C 84.9 106.6 79.9 111.6 79.9 117.4 M 17.8 128.1 C 11.600000000000001 128.1 6.600000000000001 133.1 6.600000000000001 139.29999999999998 C 6.600000000000001 145.49999999999997 11.600000000000001 150.49999999999997 17.8 150.49999999999997 C 24 150.49999999999997 29 145.49999999999997 29 139.29999999999998 C 29 133.1 24 128.1 17.8 128.1 M 123.8 111.2 C 130.4 111.2 135.4 105.8 135 99.2 C 135 93 129.6 87.60000000000001 123.4 87.60000000000001 C 117.2 87.60000000000001 111.80000000000001 93.00000000000001 112.2 99.60000000000001 C 112.2 106.2 117.6 111.2 123.8 111.2 M 165.6 76 C 158.6 76 152.79999999999998 81.8 152.79999999999998 88.8 C 152.79999999999998 95.8 158.6 101.6 165.6 101.6 C 172.6 101.6 178.4 95.8 178.4 88.8 C 178.4 81.8 172.6 76 165.6 76 M 165.6 117 C 159 117 154 122.4 154 128.6 C 154 135.2 159.4 140.2 165.6 140.2 C 172.2 140.2 177.2 135.2 177.2 128.6 C 177.2 122.4 171.8 117 165.6 117 M 165.6 149.2 C 159.4 149.2 154.4 154.2 154.4 160.39999999999998 C 154.4 166.59999999999997 159.4 171.59999999999997 165.6 171.59999999999997 C 171.79999999999998 171.59999999999997 176.79999999999998 166.59999999999997 176.79999999999998 160.39999999999998 C 176.8 154.2 171.8 149.2 165.6 149.2 M 127.1 167.5 C 127.1 172.9 131.6 177.4 137.4 177.4 C 142.8 177.4 147.3 172.4 147.3 167.1 C 147.3 161.7 142.8 157.2 137 157.2 C 131.2 157.1 127.1 161.7 127.1 167.5 M 94.4 150.9 C 94.4 156.3 98.9 160.8 104.30000000000001 160.8 C 110.10000000000001 160.8 114.20000000000002 156.20000000000002 114.20000000000002 150.9 C 114.20000000000002 145.6 109.70000000000002 141 104.30000000000001 141 C 98.5 140.6 94 145.5 94.4 150.9 M 121.3 137.7 C 121.3 143.5 126.3 148.1 132.1 148.1 C 137.9 148.1 142.5 143.1 142.5 137.29999999999998 C 142.5 131.49999999999997 137.5 126.99999999999999 131.7 126.99999999999999 C 125.9 127.3 120.9 131.9 121.3 137.7 M 131.7 192.3 C 131.7 197.70000000000002 136.2 201.8 141.6 201.8 C 147 201.8 151.1 197.20000000000002 150.7 191.9 C 150.7 186.5 146.2 182.4 141.2 182.8 C 135.4 182.8 131.2 186.9 131.7 192.3 M 135 214.7 C 135 220.1 139.5 224.2 144.5 223.79999999999998 C 149.9 223.79999999999998 154 219.2 153.6 214.29999999999998 C 153.6 208.89999999999998 149.1 204.79999999999998 143.7 205.2 C 138.7 205.1 134.5 209.3 135 214.7 M 165.6 176.6 C 159.79999999999998 176.6 154.79999999999998 181.2 154.79999999999998 187 C 154.79999999999998 192.8 159.29999999999998 197.3 165.6 197.3 C 171.4 197.3 175.9 192.8 175.9 187 C 175.9 181.2 171.4 176.6 165.6 176.6 M 165.6 201.4 C 160.2 201.4 155.7 206 155.7 211.3 C 155.7 216.70000000000002 160.2 221.20000000000002 165.6 221.20000000000002 C 171 221.20000000000002 175.5 216.70000000000002 175.5 211.3 C 175.5 206 171 201.4 165.6 201.4 M 71.2 95.4 C 77.8 95.4 83.2 90 83.2 83 C 83.2 76.4 77.8 71 70.8 71 C 64.2 71 58.8 76.4 58.8 83 C 59.2 90.1 64.6 95.4 71.2 95.4 M 211.5 191.5 C 206.5 191.5 202.4 195.6 202.4 200.6 C 202.4 205.6 206.5 209.7 211.5 209.7 C 216.5 209.7 220.6 206 220.6 200.6 C 220.7 195.6 216.5 191.5 211.5 191.5 M 228.1 178.2 C 228.1 172.79999999999998 224 168.7 218.6 168.7 C 213.2 168.7 209.1 172.79999999999998 209.1 178.2 C 209.1 183.6 213.2 187.7 218.6 187.7 C 223.5 187.7 227.7 183.2 228.1 178.2 M 231 219.6 C 236 219.6 239.7 215.9 239.7 210.9 C 239.7 206.4 236 202.20000000000002 231 202.20000000000002 C 226 202.20000000000002 222.3 205.9 222.3 210.9 C 222.3 215.9 226 219.6 231 219.6 M 248.8 191 C 248.8 186 244.70000000000002 181.9 239.70000000000002 181.9 C 234.70000000000002 181.9 230.60000000000002 186 230.60000000000002 191 C 230.60000000000002 196 234.70000000000002 200.1 239.70000000000002 200.1 C 245.1 200.2 248.8 196 248.8 191 M 256.7 196.9 C 251.29999999999998 196.9 247.2 201 247.2 206.4 C 247.2 209.3 248.89999999999998 211.8 250.89999999999998 213.4 C 250.09999999999997 213 249.29999999999998 213 247.99999999999997 213 C 242.99999999999997 213 238.89999999999998 217.1 238.89999999999998 222.1 C 238.89999999999998 224.6 239.7 226.6 241.39999999999998 228.29999999999998 L 240.59999999999997 228.29999999999998 C 236.09999999999997 228.29999999999998 231.89999999999998 231.99999999999997 231.89999999999998 236.99999999999997 C 231.89999999999998 238.19999999999996 232.29999999999998 239.49999999999997 232.7 240.69999999999996 C 230.6 241.49999999999997 228.6 243.19999999999996 227.7 245.69999999999996 C 228.1 244.89999999999995 228.1 243.99999999999997 228.1 243.19999999999996 C 228.1 240.69999999999996 226.9 238.59999999999997 225.6 236.99999999999997 C 229.7 236.19999999999996 232.2 232.89999999999998 232.2 228.69999999999996 C 232.2 223.69999999999996 228.5 219.99999999999997 223.5 219.99999999999997 C 219 219.99999999999997 214.8 223.69999999999996 214.8 228.69999999999996 C 214.8 230.79999999999995 215.60000000000002 232.79999999999995 216.9 234.49999999999997 C 213.6 235.29999999999998 211.1 237.39999999999998 210.3 240.29999999999998 L 210.3 238.2 C 210.3 234.89999999999998 208.60000000000002 232.39999999999998 206.20000000000002 230.7 C 210.70000000000002 230.7 214.50000000000003 226.6 214.9 221.6 C 214.9 216.6 210.8 212.5 205.8 212.5 C 200.8 212.5 196.70000000000002 216.6 196.70000000000002 221.6 C 196.70000000000002 224.9 198.4 227.4 200.8 229.1 C 197.10000000000002 229.1 194.20000000000002 231.6 192.5 234.9 L 192.5 234.1 C 192.5 229.2 188.4 225 183.4 225 C 178.9 225 175.5 227.9 174.70000000000002 232 L 174.70000000000002 231.6 C 174.70000000000002 226.6 170.60000000000002 222.9 165.60000000000002 222.9 C 160.60000000000002 222.9 156.50000000000003 227 156.50000000000003 231.6 L 156.50000000000003 232.4 C 155.70000000000002 228.3 151.90000000000003 225 147.40000000000003 225 C 142.40000000000003 225 138.30000000000004 229.1 138.30000000000004 234.1 L 138.30000000000004 234.9 C 137.10000000000005 231.6 133.80000000000004 229.1 130.00000000000003 229.1 C 132.50000000000003 227.4 134.50000000000003 224.5 134.50000000000003 221.6 C 134.50000000000003 216.6 130.40000000000003 212.5 125.00000000000003 212.5 C 120.00000000000003 212.5 115.90000000000003 216.6 115.90000000000003 221.6 C 115.90000000000003 226.6 120.00000000000003 230.29999999999998 124.60000000000004 230.7 C 122.10000000000004 232.29999999999998 120.50000000000004 234.79999999999998 120.50000000000004 238.2 C 120.50000000000004 239 120.50000000000004 239.89999999999998 120.90000000000005 240.7 C 120.10000000000005 237.39999999999998 117.20000000000005 234.89999999999998 113.90000000000005 234.5 C 115.10000000000005 232.9 116.40000000000005 231.2 116.40000000000005 228.7 C 116.40000000000005 223.7 112.70000000000005 220 107.70000000000005 220 C 103.20000000000005 220 99.00000000000004 223.7 99.00000000000004 228.7 C 99.00000000000004 232.79999999999998 101.90000000000005 236.2 105.60000000000004 237 C 103.90000000000003 238.7 103.10000000000004 240.7 103.10000000000004 243.2 C 103.10000000000004 244 103.10000000000004 244.79999999999998 103.50000000000004 245.7 C 102.70000000000005 243.2 100.60000000000004 241.6 98.50000000000004 240.7 C 98.90000000000005 239.89999999999998 99.30000000000004 238.2 99.30000000000004 237 C 99.30000000000004 232.4 95.60000000000004 228.3 90.60000000000004 228.3 L 89.80000000000004 228.3 C 91.50000000000004 226.60000000000002 92.30000000000004 224.60000000000002 92.30000000000004 222.10000000000002 C 92.30000000000004 217.10000000000002 88.20000000000005 213.00000000000003 83.20000000000005 213.00000000000003 C 82.00000000000004 213.00000000000003 81.10000000000005 213.40000000000003 80.30000000000004 213.40000000000003 C 82.40000000000003 211.70000000000005 84.00000000000004 209.30000000000004 84.00000000000004 206.40000000000003 C 84.00000000000004 201.00000000000003 79.90000000000005 196.90000000000003 74.50000000000004 196.90000000000003 C 69.50000000000004 196.90000000000003 65.00000000000004 201.00000000000003 65.00000000000004 206.40000000000003 C 65.00000000000004 211.30000000000004 69.10000000000004 215.90000000000003 74.50000000000004 215.90000000000003 C 75.70000000000005 215.90000000000003 76.60000000000004 215.50000000000003 77.80000000000004 215.10000000000002 C 75.70000000000005 216.8 74.10000000000004 219.20000000000002 74.10000000000004 222.10000000000002 C 74.10000000000004 227.10000000000002 78.20000000000003 231.20000000000002 83.20000000000003 231.20000000000002 C 83.60000000000004 231.20000000000002 84.00000000000003 231.20000000000002 84.40000000000003 230.8 C 83.20000000000003 232.4 81.90000000000003 234.5 81.90000000000003 236.60000000000002 C 81.90000000000003 239.90000000000003 84.00000000000003 243.20000000000002 86.90000000000003 244.50000000000003 C 86.10000000000004 245.70000000000002 85.70000000000003 247.00000000000003 85.70000000000003 248.60000000000002 C 85.70000000000003 251.50000000000003 87.30000000000003 254.40000000000003 89.40000000000003 256.1 C 89.00000000000003 256.90000000000003 89.00000000000003 257.8 89.00000000000003 259 C 89.00000000000003 261.5 89.80000000000003 263.9 91.90000000000003 265.6 C 91.50000000000003 266.8 91.10000000000004 268.1 91.10000000000004 269.3 L 91.10000000000004 271 C 91.90000000000003 275.5 96.10000000000004 278.9 100.60000000000004 278.5 C 105.60000000000004 278.1 109.30000000000004 274.3 109.30000000000004 269.4 C 111.40000000000003 271.5 113.90000000000003 273.09999999999997 117.20000000000005 273.09999999999997 C 122.20000000000005 272.7 125.90000000000005 268.99999999999994 125.90000000000005 263.99999999999994 C 127.60000000000005 266.8999999999999 130.40000000000003 268.59999999999997 133.80000000000004 268.59999999999997 C 137.50000000000003 268.59999999999997 140.80000000000004 266.49999999999994 142.10000000000005 263.2 C 143.80000000000004 265.7 146.20000000000005 267.3 149.60000000000005 267.3 C 153.30000000000004 267.3 156.20000000000005 265.2 157.90000000000006 262.40000000000003 C 159.60000000000005 265.3 162.50000000000006 266.90000000000003 165.80000000000007 266.90000000000003 C 169.10000000000008 266.90000000000003 172.00000000000006 265.20000000000005 173.70000000000007 262.40000000000003 C 175.40000000000006 265.3 178.30000000000007 267.3 182.00000000000009 267.3 C 184.9000000000001 267.3 187.8000000000001 265.6 189.50000000000009 263.2 C 190.70000000000007 266.5 194.00000000000009 268.59999999999997 197.8000000000001 268.59999999999997 C 201.1000000000001 268.59999999999997 204.00000000000009 266.9 205.7000000000001 263.99999999999994 C 206.1000000000001 268.59999999999997 209.4000000000001 272.69999999999993 214.4000000000001 272.69999999999993 C 217.7000000000001 272.69999999999993 220.2000000000001 271.3999999999999 222.3000000000001 268.99999999999994 C 222.3000000000001 273.99999999999994 226.00000000000009 277.69999999999993 231.00000000000009 278.09999999999997 C 234.3000000000001 278.09999999999997 237.20000000000007 276.9 238.9000000000001 274.4 C 240.10000000000008 272.79999999999995 241.00000000000009 270.7 240.60000000000008 268.59999999999997 C 240.60000000000008 267.29999999999995 240.20000000000007 266.09999999999997 239.80000000000007 264.9 C 241.50000000000006 263.2 242.70000000000007 260.79999999999995 242.70000000000007 258.29999999999995 C 242.70000000000007 257.09999999999997 242.70000000000007 256.19999999999993 242.30000000000007 255.39999999999995 C 244.80000000000007 253.69999999999996 246.00000000000006 251.29999999999995 246.00000000000006 247.99999999999994 C 246.00000000000006 246.29999999999995 245.60000000000005 245.09999999999994 244.80000000000007 243.89999999999995 C 247.70000000000007 242.69999999999996 249.80000000000007 239.79999999999995 249.80000000000007 235.99999999999994 C 249.80000000000007 233.89999999999995 249.00000000000006 231.89999999999995 247.30000000000007 230.19999999999993 C 247.70000000000007 230.19999999999993 248.10000000000008 230.59999999999994 248.50000000000006 230.59999999999994 C 253.50000000000006 230.59999999999994 257.6000000000001 226.49999999999994 257.6000000000001 221.49999999999994 C 257.6000000000001 218.59999999999994 256.4000000000001 216.09999999999994 254.30000000000007 214.49999999999994 C 255.10000000000008 214.89999999999995 256.4000000000001 215.29999999999995 257.6000000000001 215.29999999999995 C 263.00000000000006 215.29999999999995 267.1000000000001 211.19999999999996 267.1000000000001 205.79999999999995 C 266.2 201 261.6 196.9 256.7 196.9 M 260 167.1 C 260 161.7 255.9 157.6 250.5 157.6 C 245.1 157.6 241 161.7 241 167.1 C 241 172.5 245.1 176.6 250.5 176.6 C 255.9 176.6 260 172 260 167.1 M 268.7 175.7 C 263.3 175.7 259.2 179.79999999999998 259.2 185.2 C 259.2 190.6 263.3 194.7 268.7 194.7 C 274.09999999999997 194.7 278.2 190.6 278.2 185.2 C 278.2 180.3 274 175.7 268.7 175.7 M 255.8 137.7 C 255.8 143.5 260.8 148.1 266.1 148.1 C 271.90000000000003 148.1 276.90000000000003 143.6 276.90000000000003 137.7 C 276.90000000000003 131.89999999999998 272.40000000000003 127.39999999999999 266.1 127.39999999999999 C 260.8 127.3 255.8 131.9 255.8 137.7 M 286.9 150.9 C 281.09999999999997 150.9 276.59999999999997 155.4 276.59999999999997 161.3 C 276.59999999999997 167.10000000000002 281.2 171.60000000000002 286.9 171.60000000000002 C 292.7 171.60000000000002 297.2 167.00000000000003 297.2 161.3 C 297.6 155.5 292.7 150.9 286.9 150.9 M 240.1 128.5 C 246.29999999999998 128.5 251.29999999999998 123.6 251.29999999999998 117.3 C 251.29999999999998 111.1 246.29999999999998 106.1 240.49999999999997 106.1 C 234.29999999999998 106.1 229.29999999999998 110.6 229.29999999999998 116.89999999999999 C 228.9 123.6 233.9 128.5 240.1 128.5 M 313 128.1 C 306.8 128.1 301.8 133.1 301.8 139.29999999999998 C 301.8 145.49999999999997 306.8 150.49999999999997 313 150.49999999999997 C 319.2 150.49999999999997 324.2 145.49999999999997 324.2 139.29999999999998 C 324.1 133.1 319.2 128.1 313 128.1 M 207 111.2 C 213.6 111.2 219 106.2 219 100 C 219 93.4 214 88 207.4 88 C 201.20000000000002 88 195.8 93 195.8 99.6 C 195.8 105.8 200.8 110.7 207 111.2 M 193.7 177 C 199.1 177 203.6 172.9 204 167.1 C 204 161.7 199.9 157.2 194.1 156.7 C 188.7 156.7 183.79999999999998 160.79999999999998 183.79999999999998 166.6 C 183.79999999999998 172.4 188.4 177 193.7 177 M 226.4 160.8 C 231.8 160.8 236.70000000000002 156.20000000000002 236.70000000000002 150.9 C 236.70000000000002 145.6 232.10000000000002 141 226.8 140.6 C 221.4 140.6 216.4 145.2 216.4 150.5 C 216.5 156.3 221.1 160.8 226.4 160.8 M 199.1 148 C 204.9 148 209.9 143.5 209.9 137.6 C 209.9 131.79999999999998 205.4 126.8 199.6 126.8 C 193.79999999999998 126.8 188.79999999999998 131.4 188.79999999999998 137.1 C 188.8 143 193.3 148 199.1 148 M 189.6 201.4 C 195 201.4 199.1 197.3 199.5 191.9 C 199.5 186.5 195.4 182.4 190.4 182.4 C 185 182.4 180.9 186.5 180.5 191.5 C 180.5 197.3 184.6 201.4 189.6 201.4 M 186.7 223.7 C 192.1 223.7 196.2 219.6 196.6 214.6 C 196.6 209.2 192.5 205.1 187.5 205.1 C 182.1 205.1 178 209.2 177.6 214.2 C 177.2 219.6 181.3 223.7 186.7 223.7 M 259.6 95.4 C 266.20000000000005 95.4 271.6 90 272 83.4 C 272 76.80000000000001 266.6 71.4 260 71.4 C 253.4 71.4 247.6 76.80000000000001 247.6 83.4 C 247.5 89.6 252.9 95 259.6 95.4 M 165.6 53.2 C 173.5 53.2 179.7 47 179.7 39.1 C 179.7 31.700000000000003 173.1 25.400000000000002 165.6 25.400000000000002 C 157.7 25.400000000000002 151.5 31.6 151.5 39.5 C 151.5 47 157.7 53.2 165.6 53.2" stroke-linecap="round" />
</g>
</svg>